# xmcd
# Track frame offsets:
# 180
# 11511
# 33028
# 45547
# 61071
# 76661
# 102876
# 115393
# 128797
# 144804
# 166223
# 175442
# 189783
# 198025
#
# Disc length: 2855 seconds
# Revision: 0
# Processed by: cddbd v1.5.2PL0 Copyright (c) Steve Scherf et al.
# Submitted via: VisiTrax 2.10.2.252 - For more info visit www.synapsa.com
#
DISCID=9e0b250e
DTITLE=Sunny Fournier - One more for the blues
DYEAR=1997
DGENRE=Blues
TTITLE0=Oh why
TTITLE1=Freedom
TTITLE2=I Don*t know
TTITLE3=Nowhere fast
TTITLE4=Crazy about my baby
TTITLE5=There must be a better worl somewhere
TTITLE6=Montreal
TTITLE7=Ask me no questions
TTITLE8=What will never do
TTITLE9=The jealous kind
TTITLE10=Look at where you*ve been
TTITLE11=1.900
TTITLE12=Dangerous
TTITLE13=One more for the blues
EXTD=
EXTT0=
EXTT1=
EXTT2=
EXTT3=
EXTT4=
EXTT5=
EXTT6=
EXTT7=
EXTT8=
EXTT9=
EXTT10=
EXTT11=
EXTT12=
EXTT13=
PLAYORDER=
